<?xml version="1.0" standalone="no"?>
<!DOCTYPE svg PUBLIC "-//W3C//DTD SVG 1.1//EN" "http://www.w3.org/Graphics/SVG/1.1/DTD/svg11.dtd" >
<svg xmlns="http://www.w3.org/2000/svg" xmlns:xlink="http://www.w3.org/1999/xlink" version="1.1">
<metadata></metadata>
<defs>
<font id="bonn_capsbold" horiz-adv-x="1185" >
<font-face units-per-em="2048" ascent="1638" descent="-410" />
<missing-glyph horiz-adv-x="450" />
<glyph horiz-adv-x="0" />
<glyph horiz-adv-x="682" />
<glyph unicode=" "  horiz-adv-x="450" />
<glyph unicode="&#x09;" horiz-adv-x="450" />
<glyph unicode="&#xa0;" horiz-adv-x="450" />
<glyph unicode="!" horiz-adv-x="575" d="M104 1286h365l-55 -940h-254zM104 1286h365h-365zM123 139q0 68 47.5 115t116.5 47q67 0 114.5 -47.5t47.5 -114.5q0 -69 -47 -116.5t-115 -47.5q-69 0 -116.5 47.5t-47.5 116.5z" />
<glyph unicode="&#x22;" horiz-adv-x="753" d="M49 838v448h293v-448h-293zM410 838v448h292v-448h-292z" />
<glyph unicode="#" d="M88 340v258h186l13 90h-150v258h187l47 340h264l-49 -340h102l47 340h266l-49 -340h152v-258h-186l-13 -90h150v-258h-187l-47 -340h-266l51 340h-102l-49 -340h-265l50 340h-152zM539 598h100l14 90h-100z" />
<glyph unicode="$" horiz-adv-x="1241" d="M25 246l237 213l31 -35q156 -164 317 -164q127 0 182.5 27.5t55.5 105.5q0 30 -26.5 49.5t-70.5 31t-102 19.5t-121.5 19t-127 26.5t-121.5 44t-102 68.5t-70.5 105t-26.5 149q0 153 102.5 255t272.5 132v205h305v-197q223 -35 368 -186l35 -33l-233 -213l-33 33 q-74 73 -140 101t-149 28q-13 0 -26 -1t-40.5 -4t-49.5 -11.5t-44.5 -21.5t-35.5 -36t-13 -53q0 -27 26.5 -44t71.5 -26t103 -15.5t122.5 -16t128.5 -23t122 -41t103 -66.5t71.5 -103t26.5 -146q0 -86 -33.5 -158t-92.5 -122t-131.5 -84t-158.5 -52v-225h-303v221 q-247 48 -398 209z" />
<glyph unicode="%" horiz-adv-x="1454" d="M37 944q0 151 108 258t261 107t260.5 -107t107.5 -258q0 -90 -43 -178l279 283h250l-377 -379q77 41 170 41q153 0 260.5 -107t107.5 -258q0 -154 -107 -261.5t-261 -107.5t-261.5 107.5t-107.5 261.5q0 83 37 162l-285 -287h-250l400 400q-84 -46 -180 -46 q-154 0 -261.5 107.5t-107.5 261.5zM272 944q0 -55 39 -94t95 -39t94.5 38.5t38.5 94.5t-38.5 94.5t-94.5 38.5t-95 -39t-39 -94zM920 346q0 -56 39 -94.5t94 -38.5t94 38.5t39 94.5t-39 94.5t-94 38.5t-94 -38.5t-39 -94.5z" />
<glyph unicode="&#x26;" horiz-adv-x="1275" d="M100 395q0 98 47 180.5t132 131.5q-99 86 -99 229q0 153 120.5 264t320.5 111q118 0 212.5 -45.5t151.5 -130.5v-2l29 -46l-264 -129l-23 31q-47 64 -121 64q-57 0 -95 -33.5t-38 -79.5q0 -68 28 -95.5t111 -27.5h107v-258h-47h-64q-92 0 -148.5 -43.5t-56.5 -116.5 q0 -66 47.5 -110.5t151.5 -44.5q131 0 189.5 94t58.5 287l-6 184h422v-227h-125v-27q0 -120 -38.5 -226t-107.5 -184.5t-172 -124t-225 -45.5q-226 0 -362 109t-136 311z" />
<glyph unicode="'" horiz-adv-x="468" d="M86 838v448h291v-448h-291z" />
<glyph unicode="(" horiz-adv-x="626" d="M66 596q0 415 288 799l29 37l233 -181l-22 -34q-128 -197 -171.5 -334.5t-43.5 -286.5t43.5 -287t171.5 -334l22 -36l-233 -181l-29 39q-288 381 -288 799z" />
<glyph unicode=")" horiz-adv-x="626" d="M10 -61l23 36q128 196 171.5 334t43.5 287t-43.5 286.5t-171.5 334.5l-23 34l234 181l28 -37q289 -385 289 -799q0 -416 -289 -799l-28 -39z" />
<glyph unicode="*" horiz-adv-x="684" d="M31 985l69 199l136 -45v147h213v-147l137 45l67 -199l-139 -47l88 -119l-172 -119l-88 119l-86 -119l-174 119l88 119z" />
<glyph unicode="+" horiz-adv-x="1187" d="M68 381v293h381v381h290v-381h381v-293h-381v-381h-290v381h-381z" />
<glyph unicode="," horiz-adv-x="555" d="M135 -197v488h293v-291z" />
<glyph unicode="-" horiz-adv-x="608" d="M70 516v281h475v-281h-475z" />
<glyph unicode="." horiz-adv-x="555" d="M119 139q0 67 47.5 114.5t114.5 47.5q69 0 116 -47t47 -115q0 -69 -47 -116.5t-116 -47.5q-68 0 -115 47.5t-47 116.5z" />
<glyph unicode="/" horiz-adv-x="677" d="M-49 -25l477 1336h307l-477 -1336h-307z" />
<glyph unicode="0" horiz-adv-x="1067" d="M86 436v414q0 108 37.5 197.5t100.5 146t142.5 87t165.5 30.5t166 -30.5t143.5 -87t101.5 -146t38 -197.5v-414q0 -108 -38 -197.5t-101.5 -146t-143.5 -87t-166 -30.5t-165.5 30.5t-142.5 87t-100.5 146t-37.5 197.5zM399 422q0 -75 37 -109t96 -34t96.5 34t37.5 109 v440q0 77 -37 111.5t-97 34.5q-59 0 -96 -34.5t-37 -111.5v-440z" />
<glyph unicode="1" horiz-adv-x="647" d="M53 717v346l473 285v-1348h-313v825z" />
<glyph unicode="2" horiz-adv-x="1101" d="M47 1001q100 163 230.5 236.5t302.5 73.5q215 0 348 -123t133 -299q0 -201 -219 -365l-305 -231h520v-293h-981v289l586 463q83 65 83 141q0 54 -51.5 95.5t-126.5 41.5q-156 0 -245 -160z" />
<glyph unicode="3" horiz-adv-x="1062" d="M-8 203l246 194l28 -28q47 -46 108 -73.5t122 -27.5q93 0 155 58t62 133q0 83 -67 137.5t-197 54.5q-42 0 -132 -22l-81 -21l274 379h-440v293h1009l-344 -420q124 -35 208.5 -141.5t84.5 -251.5q0 -92 -37 -179t-104 -157.5t-171.5 -113t-228.5 -42.5q-284 0 -458 191z " />
<glyph unicode="4" horiz-adv-x="1034" d="M-10 287l440 999h320l-314 -708h139v241h304v-241h163v-291h-163v-287h-304v287h-585z" />
<glyph unicode="5" horiz-adv-x="1062" d="M14 190l254 213q100 -135 260 -135q90 0 146.5 56.5t56.5 138.5q0 80 -52.5 132t-133.5 52q-63 0 -101.5 -19t-76.5 -61l-15 -16h-248l72 729h795v-293h-516l-11 -94q56 35 154 35q82 0 161 -30.5t144 -87t104.5 -146t39.5 -197.5q0 -69 -20 -137.5t-62.5 -132.5 t-103 -113.5t-148 -79t-189.5 -29.5q-152 0 -277 51.5t-233 163.5z" />
<glyph unicode="6" horiz-adv-x="1062" d="M51 420q0 99 28 182.5t89 185.5l328 549l311 -108l-223 -336q134 0 236 -62.5t154 -163.5t52 -221q0 -130 -58 -236.5t-170.5 -170.5t-258.5 -64q-93 0 -174 27t-137.5 71.5t-97 102t-60 120t-19.5 124.5zM354 440q0 -75 55 -129.5t130 -54.5t129.5 54.5t54.5 129.5 t-54.5 130t-129.5 55t-130 -55t-55 -130z" />
<glyph unicode="7" horiz-adv-x="995" d="M27 987v293h995l-541 -1280h-325l436 987h-565z" />
<glyph unicode="8" horiz-adv-x="1101" d="M68 401q0 98 47 178t125 126q-54 49 -79.5 112.5t-25.5 124.5q0 104 57 189t152.5 132.5t208.5 47.5q171 0 293.5 -106t122.5 -263q0 -61 -25.5 -124.5t-79.5 -112.5q78 -46 126 -126t48 -178q0 -187 -138 -306.5t-347 -119.5q-211 0 -348 119t-137 307zM371 406 q0 -58 46 -104t136 -46q89 0 134.5 46t45.5 104q0 60 -44 102.5t-136 42.5q-93 0 -137.5 -42.5t-44.5 -102.5zM438 932q0 -45 32.5 -84t82.5 -39q48 0 80.5 39t32.5 84q0 43 -32.5 82t-80.5 39q-49 0 -82 -39t-33 -82z" />
<glyph unicode="9" horiz-adv-x="1062" d="M37 840q0 130 58.5 236.5t171 170.5t257.5 64q116 0 212 -41t154.5 -106.5t90 -142.5t31.5 -155q0 -100 -27.5 -184t-87.5 -184l-328 -549l-311 108l223 336h-6q-127 0 -228.5 62t-155.5 164t-54 221zM340 846q0 -75 54.5 -129.5t129.5 -54.5t130 54.5t55 129.5 t-55 129.5t-130 54.5t-129.5 -54.5t-54.5 -129.5z" />
<glyph unicode=":" horiz-adv-x="552" d="M115 139q0 68 47 115t114 47q69 0 116.5 -47t47.5 -115q0 -69 -47.5 -116.5t-116.5 -47.5q-68 0 -114.5 47.5t-46.5 116.5zM115 874q0 68 47 115t114 47q69 0 116.5 -47t47.5 -115q0 -69 -47.5 -116t-116.5 -47q-68 0 -114.5 47t-46.5 116z" />
<glyph unicode=";" horiz-adv-x="555" d="M115 874q0 68 47 115t114 47q69 0 116.5 -47t47.5 -115q0 -69 -47.5 -116t-116.5 -47q-68 0 -114.5 47t-46.5 116zM131 -197v488h293v-291z" />
<glyph unicode="&#x3c;" d="M68 457v223l1052 455v-295l-633 -273l633 -270v-295z" />
<glyph unicode="=" d="M63 172v293h1053v-293h-1053zM63 590v293h1053v-293h-1053z" />
<glyph unicode="&#x3e;" d="M70 2v295l632 270l-632 273v295l1052 -455v-223z" />
<glyph unicode="?" horiz-adv-x="1101" d="M51 1075l31 35q170 201 440 201q227 0 376 -134.5t149 -345.5q0 -179 -109 -300.5t-276 -135.5v-49h-269v299h47h56q106 0 165.5 50.5t59.5 135.5q0 81 -57 134t-142 53q-66 0 -115 -24t-106 -81l-31 -32zM365 139q0 68 47 115t114 47q69 0 116.5 -47t47.5 -115 q0 -69 -47.5 -116.5t-116.5 -47.5q-68 0 -114.5 47.5t-46.5 116.5z" />
<glyph unicode="@" horiz-adv-x="1564" d="M186 643q0 168 85 311t231.5 226.5t318.5 83.5q159 0 296.5 -62t222.5 -179.5t85 -266.5q0 -100 -34 -183.5t-84 -134.5t-110 -86t-108.5 -49t-82.5 -14q-49 0 -76.5 26.5t-30.5 61.5h-4q-65 -88 -182 -88q-124 0 -190 79.5t-66 215.5q0 80 31 154t80 124.5t109 80.5 t118 30q148 0 219 -113l22 88h148l-101 -428q-10 -33 -10 -57q0 -15 7.5 -25t19.5 -10q70 0 128 81t58 206q0 190 -130 298.5t-335 108.5q-127 0 -236 -63t-173 -173.5t-64 -242.5q0 -208 130 -343.5t343 -135.5q249 0 387 123h148q-87 -128 -224 -196t-311 -68 q-145 0 -266 48.5t-201 132.5t-124 197t-44 242zM631 588q0 -59 35 -98t94 -39q84 0 140 66.5t56 158.5q0 51 -35.5 87t-89.5 36q-85 0 -142.5 -65.5t-57.5 -145.5z" />
<glyph unicode="A" horiz-adv-x="1431" d="M0 0l727 1378l707 -1378h-361l-112 223h-490l-106 -223h-365zM606 496h225l-112 231z" />
<glyph unicode="B" horiz-adv-x="1374" d="M123 0v1286h702q103 0 189.5 -40t143 -125t56.5 -201q0 -140 -96 -230q75 -46 119.5 -122.5t44.5 -174.5q0 -176 -119.5 -284.5t-294.5 -108.5h-745zM438 295h406q60 0 91.5 30t31.5 78q0 46 -33 78.5t-90 32.5h-406v-219zM438 803h363q100 0 100 94q0 42 -23.5 69 t-76.5 27h-363v-190z" />
<glyph unicode="C" horiz-adv-x="1284" d="M47 643q0 186 89 339t246.5 241t350.5 88q160 0 309 -68.5t236 -195.5l-258 -193q-108 154 -287 154q-152 0 -256 -106t-104 -259q0 -152 104.5 -258t255.5 -106q88 0 164.5 38.5t126.5 106.5l254 -184q-103 -131 -245.5 -198t-299.5 -67q-146 0 -274 51.5t-218 140.5 t-142 212.5t-52 263.5z" />
<glyph unicode="D" horiz-adv-x="1441" d="M123 0v1286h588q155 0 285.5 -52.5t217 -141.5t135 -205t48.5 -244q0 -127 -49.5 -243.5t-137 -205.5t-217.5 -141.5t-282 -52.5h-588zM436 303h275q168 0 269 98t101 242t-101 242t-269 98h-275v-680z" />
<glyph unicode="E" horiz-adv-x="1204" d="M123 0v1286h1046v-301h-731v-180h596v-295h-596v-209h731v-301h-1046z" />
<glyph unicode="F" horiz-adv-x="1181" d="M123 0v1286h1046v-303h-731v-174h596v-303h-596v-506h-315z" />
<glyph unicode="G" horiz-adv-x="1449" d="M41 643q0 140 52 263.5t142 212.5t218 140.5t274 51.5q157 0 299.5 -66.5t245.5 -197.5l-254 -191q-54 74 -129 115t-162 41q-150 0 -255 -108t-105 -261t105 -262t255 -109q100 0 183.5 48.5t125.5 128.5h-358v305h719q4 -93 4 -150q0 -115 -46.5 -226.5t-130.5 -201.5 t-214 -145.5t-283 -55.5q-194 0 -351.5 88t-246 241t-88.5 339z" />
<glyph unicode="H" horiz-adv-x="1400" d="M123 0v1286h315v-477h525v477h315v-1286h-315v506h-525v-506h-315z" />
<glyph unicode="I" horiz-adv-x="561" d="M123 0v1286h315v-1286h-315z" />
<glyph unicode="J" horiz-adv-x="1142" d="M0 258l248 170q31 -59 93 -104t136 -45q108 0 173 66.5t65 213.5v424h-285v303h600v-756q0 -153 -63.5 -278t-189 -201t-292.5 -76q-96 0 -179 25.5t-141.5 69t-98.5 90t-66 98.5z" />
<glyph unicode="K" horiz-adv-x="1361" d="M123 0v1286h315v-477h146l379 477h401l-481 -577l485 -709h-393l-332 506h-205v-506h-315z" />
<glyph unicode="L" horiz-adv-x="1150" d="M123 0v1286h315v-983h688v-303h-1003z" />
<glyph unicode="M" horiz-adv-x="1398" d="M123 0v1354l575 -582l578 582v-1354h-315v641l-263 -268l-262 270v-643h-313z" />
<glyph unicode="N" horiz-adv-x="1327" d="M123 0v1362l768 -717v641h313v-1354l-768 717v-649h-313z" />
<glyph unicode="O" horiz-adv-x="1454" d="M41 643q0 139 54 263t146 212.5t218.5 140.5t267.5 52t267.5 -52t218.5 -140.5t146 -212.5t54 -263t-54 -263t-146 -212.5t-218.5 -140.5t-267.5 -52t-267.5 52t-218.5 140.5t-146 212.5t-54 263zM367 643q0 -150 108.5 -257t251.5 -107q142 0 251 107t109 257 t-109 257.5t-251 107.5q-143 0 -251.5 -107.5t-108.5 -257.5z" />
<glyph unicode="P" horiz-adv-x="1277" d="M123 0v1286h653q212 0 343.5 -130t131.5 -325t-131.5 -325.5t-343.5 -130.5h-338v-375h-315zM438 678h320q178 0 178 153q0 152 -178 152h-320v-305z" />
<glyph unicode="Q" horiz-adv-x="1454" d="M41 643q0 139 54 263t146 212.5t218.5 140.5t267.5 52t267.5 -52t218.5 -140.5t146 -212.5t54 -263q0 -240 -153 -421.5t-388 -231.5v-164h-292v166q-233 48 -386 229.5t-153 421.5zM367 643q0 -111 60 -202t153 -132v172h292v-172q96 40 155.5 130.5t59.5 203.5 q0 150 -109 257.5t-251 107.5q-143 0 -251.5 -107.5t-108.5 -257.5z" />
<glyph unicode="R" horiz-adv-x="1312" d="M123 0v1286h653q212 0 343.5 -130t131.5 -325q0 -132 -70.5 -240t-183.5 -140l318 -451h-393l-248 375h-236v-375h-315zM438 678h320q178 0 178 151q0 154 -178 154h-320v-305z" />
<glyph unicode="S" horiz-adv-x="1206" d="M-2 246l238 213q42 -78 141.5 -131.5t206.5 -53.5q237 0 237 132q0 36 -33 58t-87 30t-123 17t-141 17.5t-141 34t-123 64t-87 110t-33 168.5q0 121 76 215t198.5 142.5t266.5 48.5q371 0 541 -230l-228 -200q-82 81 -157.5 115t-167.5 34q-203 0 -203 -119 q0 -32 26.5 -52t70.5 -29t102 -14t121.5 -11.5t127 -18t121.5 -37.5t102 -65.5t70.5 -106t26.5 -155.5q0 -84 -32 -156.5t-87.5 -125t-128.5 -90.5t-156 -56.5t-170 -18.5q-166 0 -313.5 67.5t-261.5 203.5z" />
<glyph unicode="T" horiz-adv-x="1034" d="M10 983v303h1012v-303h-348v-983h-316v983h-348z" />
<glyph unicode="U" horiz-adv-x="1378" d="M113 532v754h313v-706q0 -144 74 -222.5t188 -78.5q115 0 188.5 78.5t73.5 222.5v706h316v-754q0 -111 -42.5 -213t-117 -178t-183.5 -121t-235 -45q-167 0 -300 77t-204 203.5t-71 276.5z" />
<glyph unicode="V" horiz-adv-x="1198" d="M0 1286h342l258 -627l256 627h342l-598 -1362z" />
<glyph unicode="W" horiz-adv-x="1687" d="M0 1286h334l239 -590l269 539l272 -539l236 590h338l-570 -1349l-276 630l-285 -626z" />
<glyph unicode="X" horiz-adv-x="1153" d="M0 0l395 643l-395 643h373l205 -356l215 356h360l-395 -643l395 -643h-373l-202 356l-218 -356h-360z" />
<glyph unicode="Y" horiz-adv-x="1368" d="M0 1286h377l311 -524l309 524h373l-526 -823v-463h-316v463z" />
<glyph unicode="Z" horiz-adv-x="1171" d="M-10 0l620 983h-549v303h1108l-628 -983h581v-303h-1132z" />
<glyph unicode="[" horiz-adv-x="636" d="M111 -182v1554h507v-280h-204v-994h204v-280h-507z" />
<glyph unicode="\" horiz-adv-x="677" d="M-55 1311h305l479 -1336h-307z" />
<glyph unicode="]" horiz-adv-x="636" d="M23 98h204v994h-204v280h507v-1554h-507v280z" />
<glyph unicode="^" d="M70 461l403 825h234l403 -825h-305l-215 469l-217 -469h-303z" />
<glyph unicode="_" horiz-adv-x="995" d="M0 -47h995v-191h-995v191z" />
<glyph unicode="`" horiz-adv-x="1024" d="M305 1157v217l432 -114v-216z" />
<glyph unicode="{" horiz-adv-x="710" d="M14 471v250h47q61 0 92 14t31 49v330q0 258 281 258h227v-246h-149q-31 0 -43.5 -11.5t-12.5 -43.5v-303q0 -110 -92 -172q92 -65 92 -174v-303q0 -56 56 -56h149v-245h-227q-281 0 -281 258v330q0 36 -27.5 50.5t-95.5 14.5h-47z" />
<glyph unicode="|" horiz-adv-x="468" d="M113 -25v1336h290v-1336h-290z" />
<glyph unicode="}" horiz-adv-x="710" d="M18 63h150q55 0 55 56v303q0 109 92 174q-92 62 -92 172v303q0 32 -12 43.5t-43 11.5h-150v246h228q280 0 280 -258v-330q0 -35 31 -49t92 -14h47v-250h-47q-68 0 -95.5 -14.5t-27.5 -50.5v-330q0 -258 -280 -258h-228v245z" />
<glyph unicode="~" d="M127 532q48 105 123.5 156t165.5 51q91 0 237 -67q14 -7 47 -24t45.5 -22.5t34 -11.5t39.5 -6q28 0 61 29.5t64 85.5l47 86l115 -289q-128 -203 -289 -203q-93 0 -219 68q-82 42 -115.5 53t-76.5 11q-60 0 -115 -111l-47 -102z" />
<glyph unicode="&#xa1;" horiz-adv-x="575" d="M104 -272l56 940h254l55 -940h-365zM123 874q0 68 47.5 115t116.5 47q67 0 114.5 -47t47.5 -115q0 -69 -47 -116t-115 -47q-69 0 -116.5 47t-47.5 116z" />
<glyph unicode="&#xa2;" horiz-adv-x="1062" d="M37 547q0 165 106.5 310.5t284.5 199.5v157h291v-155q202 -48 321 -223l-249 -158q-84 119 -201 119q-105 0 -177.5 -72.5t-72.5 -177.5q0 -104 73 -177t177 -73q59 0 111 32t90 87l251 -156q-54 -82 -138 -141.5t-185 -87.5v-152h-291v162q-178 51 -284.5 196.5 t-106.5 309.5z" />
<glyph unicode="&#xa3;" horiz-adv-x="888" d="M0 0v246h47q66 0 87.5 25t35.5 116l23 131h-111v291h158l28 166q25 153 124.5 244.5t252.5 91.5q106 0 217 -43l-53 -301q-38 35 -69.5 49t-71.5 14q-47 0 -75.5 -51.5t-47.5 -169.5h237v-291h-286l-23 -131q-7 -47 -22 -84h395v-303h-846z" />
<glyph unicode="&#xa4;" d="M39 264l115 113q-76 124 -76 266q0 141 72 266l-111 113l184 184l113 -119q120 74 260 74q138 0 260 -69l113 114l184 -184l-115 -113q76 -124 76 -266q0 -143 -72 -268l111 -111l-184 -184l-113 117q-122 -72 -260 -72q-134 0 -260 68l-113 -113zM371 643 q0 -102 64.5 -169.5t160.5 -67.5t160.5 67.5t64.5 169.5t-64.5 170t-160.5 68t-160.5 -68t-64.5 -170z" />
<glyph unicode="&#xa5;" horiz-adv-x="1171" d="M0 1286h350l242 -414l237 414h342l-333 -559h170v-235h-275v-60h275v-235h-275v-197h-293v197h-274v235h274v60h-274v235h170z" />
<glyph unicode="&#xa6;" horiz-adv-x="468" d="M113 -25v543h290v-543h-290zM113 768v543h290v-543h-290z" />
<glyph unicode="&#xa7;" horiz-adv-x="1171" d="M35 705q0 101 64 182t169 104q0 5 -2 16t-2 17q0 138 94 212.5t267 74.5q220 0 374 -146l-192 -207q-88 82 -193 82q-42 0 -52 -20q-8 -16 18 -23l299 -75q120 -30 191 -109.5t71 -196.5q0 -133 -77.5 -216.5t-174.5 -100.5q6 -24 6 -51q0 -44 -26 -90.5t-74.5 -88 t-131 -68t-182.5 -26.5q-264 0 -420 181l189 217q41 -59 110.5 -94t153.5 -35q51 0 75.5 17.5t24.5 39.5q0 20 -43 31l-288 65q-114 25 -181 107t-67 201zM323 728q-13 -34 25 -57q17 -10 41 -16l324 -71q92 -18 119 -11q27 9 28 37q0 20 -18.5 32.5t-73.5 23.5l-328 71 q-69 15 -86 15q-22 0 -31 -24z" />
<glyph unicode="&#xa8;" horiz-adv-x="1024" d="M125 1180q0 57 39 96t96 39q56 0 95.5 -39t39.5 -96q0 -54 -40 -93.5t-95 -39.5q-56 0 -95.5 39.5t-39.5 93.5zM600 1180q0 57 39 96t96 39q55 0 94 -39.5t39 -95.5q0 -54 -39.5 -93.5t-93.5 -39.5q-57 0 -96 39.5t-39 93.5z" />
<glyph unicode="&#xa9;" horiz-adv-x="1564" d="M162 643q0 168 82.5 311t225.5 226.5t312 83.5q168 0 310.5 -83.5t225.5 -226.5t83 -311q0 -169 -83 -312t-225.5 -225.5t-310.5 -82.5q-127 0 -241.5 49t-197.5 132t-132 197.5t-49 241.5zM324 643q0 -206 134 -342.5t324 -136.5q189 0 323 136.5t134 342.5t-134 342.5 t-323 136.5q-190 0 -324 -136.5t-134 -342.5zM455 643q0 161 94 264t254 103q117 0 198 -67t99 -187h-146q-12 53 -53.5 82.5t-95.5 29.5q-82 0 -129 -62t-47 -163t47 -163t129 -62q54 0 95.5 29t53.5 81h146q-18 -119 -99 -185.5t-198 -66.5q-160 0 -254 103t-94 264z" />
<glyph unicode="&#xaa;" horiz-adv-x="802" d="M18 973q0 135 95 222t239 87q97 0 154 -57v43h203v-590h-203v43q-60 -57 -162 -57q-139 0 -232.5 86t-93.5 223zM219 973q0 -58 41 -100t109 -42q58 0 103.5 44t45.5 98q0 58 -43.5 99.5t-105.5 41.5q-67 0 -108.5 -41.5t-41.5 -99.5z" />
<glyph unicode="&#xab;" horiz-adv-x="1052" d="M51 567l318 480l264 -91l-256 -389l254 -387l-262 -92zM469 567l315 480l265 -91l-254 -389l252 -387l-263 -92z" />
<glyph unicode="&#xac;" d="M49 590v293h1053v-676h-291v383h-762z" />
<glyph unicode="&#xad;" horiz-adv-x="608" d="M70 516v281h475v-281h-475z" />
<glyph unicode="&#xae;" horiz-adv-x="1564" d="M162 643q0 168 82.5 311t225.5 226.5t312 83.5q168 0 310.5 -83.5t225.5 -226.5t83 -311q0 -169 -83 -312t-225.5 -225.5t-310.5 -82.5q-127 0 -241.5 49t-197.5 132t-132 197.5t-49 241.5zM324 643q0 -206 134 -342.5t324 -136.5q189 0 323 136.5t134 342.5t-134 342.5 t-323 136.5q-190 0 -324 -136.5t-134 -342.5zM535 299v690h270q134 0 197 -52t63 -157q0 -163 -164 -186l172 -295h-168l-166 289h-53v-289h-151zM686 705h131q39 0 67.5 23t28.5 60t-29 60.5t-67 23.5h-131v-167z" />
<glyph unicode="&#xaf;" horiz-adv-x="1024" d="M276 1102v203h465v-203h-465z" />
<glyph unicode="&#xb0;" horiz-adv-x="806" d="M78 991q0 132 92.5 226t224.5 94t226 -94t94 -226t-94 -224.5t-226 -92.5t-224.5 92.5t-92.5 224.5zM301 991q0 -38 28 -66t66 -28q39 0 68 28t29 66t-29.5 67t-67.5 29t-66 -29t-28 -67z" />
<glyph unicode="&#xb1;" d="M70 0v293h1052v-293h-1052zM70 586v293h376v251h291v-251h385v-293h-385v-252h-291v252h-376z" />
<glyph unicode="&#xb2;" horiz-adv-x="731" d="M53 1100l13 18q122 164 333 164q144 0 231 -71t87 -175q0 -59 -33.5 -111t-89.5 -89l-268 -181v25h389v-166h-635v160l375 274q61 42 61 84q0 32 -37.5 57t-93.5 25q-94 0 -156 -86l-10 -14z" />
<glyph unicode="&#xb3;" horiz-adv-x="710" d="M43 614l137 121l13 -10q74 -70 155 -70q68 0 113 39.5t45 85.5q0 50 -48 85.5t-139 35.5q-36 0 -90 -14l-32 -8l180 211h-291v167h643l-219 -245q83 -20 140 -83.5t57 -152.5q0 -115 -91.5 -201t-246.5 -86q-209 0 -312 111z" />
<glyph unicode="&#xb4;" horiz-adv-x="1024" d="M303 1044v216l432 114v-217z" />
<glyph unicode="&#xb5;" horiz-adv-x="1335" d="M129 0v1382l514 -510h74q55 0 93 -29.5t38 -86.5q0 -45 -21 -68l70 -78v676h313v-1386l-544 544h-185v181l-39 49v-674h-313zM575 543h154q47 0 47 39q0 15 -13 25.5t-34 10.5h-154v-75zM575 711h136q41 0 41 39q0 34 -41 34h-136v-73z" />
<glyph unicode="&#xb6;" horiz-adv-x="1222" d="M94 930q0 96 32.5 166.5t91.5 111t132.5 59.5t163.5 19h541v-1286h-271v1051h-67v-1051h-268v582q-167 6 -261 98t-94 250z" />
<glyph unicode="&#xb7;" horiz-adv-x="555" d="M78 649q0 83 58 141t140 58q83 0 141 -58t58 -141q0 -82 -58 -140t-141 -58q-82 0 -140 58t-58 140z" />
<glyph unicode="&#xb8;" horiz-adv-x="1024" d="M432 2q95 -5 159 -57.5t64 -143.5q0 -99 -63.5 -154.5t-159.5 -60.5v133q37 2 62.5 23t25.5 53t-25 52t-63 22v133z" />
<glyph unicode="&#xb9;" horiz-adv-x="436" d="M63 944v195l316 153v-778h-201v496z" />
<glyph unicode="&#xba;" horiz-adv-x="780" d="M45 973q0 55 23 109.5t64.5 99.5t107 72.5t143.5 27.5q77 0 143 -27.5t107.5 -72.5t64.5 -99.5t23 -109.5q0 -74 -38.5 -143.5t-118 -117.5t-181.5 -48q-78 0 -144 28t-107 73t-64 99t-23 109zM246 973q0 -57 38 -94t99 -37t99 37t38 94t-38 94t-99 37t-99 -37t-38 -94z " />
<glyph unicode="&#xbb;" horiz-adv-x="1052" d="M8 178l254 389l-252 387l262 93l316 -480l-316 -479zM426 178l254 389l-254 387l262 93l318 -480l-318 -479z" />
<glyph unicode="&#xbc;" horiz-adv-x="1591" d="M90 944v195l316 153v-778h-201v496zM430 29l406 1228h221l-406 -1228h-221zM883 184l278 596h193l-203 -418h117v166h188v-166h92v-178h-92v-155h-188v155h-385z" />
<glyph unicode="&#xbd;" horiz-adv-x="1591" d="M90 944v195l316 153v-778h-201v496zM379 29l405 1228h222l-406 -1228h-221zM885 614l14 19q54 75 139.5 119.5t194.5 44.5q142 0 228.5 -71t86.5 -175q0 -59 -33.5 -111.5t-89.5 -89.5l-266 -180v25h389v-166h-637v159l377 275q60 43 60 84q0 32 -37.5 57t-93.5 25 q-46 0 -86.5 -23.5t-67.5 -62.5l-10 -15z" />
<glyph unicode="&#xbe;" horiz-adv-x="1591" d="M43 614l137 121l13 -10q74 -70 155 -70q68 0 113 39.5t45 85.5q0 50 -48 85.5t-139 35.5q-36 0 -90 -14l-59 -15l195 218h-279v167h643l-219 -245q83 -20 140 -83.5t57 -152.5q0 -115 -91.5 -201t-246.5 -86q-209 0 -312 111zM535 29l405 1228h221l-405 -1228h-221z M883 184l278 596h193l-203 -418h117v166h188v-166h92v-178h-92v-155h-188v155h-385z" />
<glyph unicode="&#xbf;" horiz-adv-x="1101" d="M125 182q0 178 109.5 300t275.5 136v50h268v-299h-47h-55q-106 0 -165.5 -51.5t-59.5 -137.5q0 -81 56.5 -133.5t141.5 -52.5q66 0 115 23.5t106 80.5l31 35l219 -196l-30 -33q-80 -97 -193.5 -149t-247.5 -52q-227 0 -375.5 134t-148.5 345zM481 874q0 68 47.5 115 t116.5 47q67 0 114.5 -47t47.5 -115q0 -69 -47 -116t-115 -47q-69 0 -116.5 47t-47.5 116z" />
<glyph unicode="&#xc0;" horiz-adv-x="1431" d="M0 0l727 1378l707 -1378h-361l-112 223h-490l-106 -223h-365zM436 1485v217l432 -115v-215zM606 496h225l-112 231z" />
<glyph unicode="&#xc1;" horiz-adv-x="1431" d="M0 0l727 1378l707 -1378h-361l-112 223h-490l-106 -223h-365zM553 1389v215l432 114v-217zM606 496h225l-112 231z" />
<glyph unicode="&#xc2;" horiz-adv-x="1431" d="M0 0l727 1378l707 -1378h-361l-112 223h-490l-106 -223h-365zM465 1370v199l260 92l260 -92v-199l-260 96zM606 496h225l-112 231z" />
<glyph unicode="&#xc3;" horiz-adv-x="1431" d="M0 0l727 1378l707 -1378h-361l-112 223h-490l-106 -223h-365zM498 1409v176q58 70 149 70q37 0 93 -35t83 -35q70 0 115 72v-189q-71 -71 -139 -71q-44 0 -98.5 35.5t-92.5 35.5q-58 0 -110 -59zM606 496h225l-112 231z" />
<glyph unicode="&#xc4;" horiz-adv-x="1431" d="M0 0l727 1378l707 -1378h-361l-112 223h-490l-106 -223h-365zM301 1450q0 57 39 96t96 39q56 0 95.5 -39t39.5 -96q0 -54 -40 -93.5t-95 -39.5q-56 0 -95.5 39.5t-39.5 93.5zM606 496h225l-112 231zM858 1450q0 57 39 96t96 39q55 0 94 -39.5t39 -95.5q0 -54 -39.5 -93.5 t-93.5 -39.5q-57 0 -96 39.5t-39 93.5z" />
<glyph unicode="&#xc5;" horiz-adv-x="1431" d="M0 0l543 1028q-123 88 -123 246q0 128 91 218.5t218 90.5t218 -90.5t91 -218.5q0 -80 -33 -145.5t-94 -108.5l523 -1020h-361l-108 223h-498l-102 -223h-365zM592 1274q0 -57 40 -97t97 -40t97 40t40 97t-40 97t-97 40t-97 -40t-40 -97zM600 496h238l-119 272z" />
<glyph unicode="&#xc6;" horiz-adv-x="1662" d="M-12 0l463 983h-193v303h1378v-303h-632v-174h417v-303h-417v-203h632v-303h-964v223h-252l-101 -223h-331zM492 477h186v408z" />
<glyph unicode="&#xc7;" horiz-adv-x="1284" d="M41 643q0 186 89 339t246.5 241t350.5 88q160 0 309 -68.5t236 -195.5l-258 -193q-108 154 -287 154q-152 0 -256 -106t-104 -259q0 -152 104.5 -258t255.5 -106q88 0 164.5 38.5t126.5 106.5l254 -184q-94 -121 -223 -187.5t-273 -75.5q107 -49 107 -159 q0 -91 -58 -141.5t-145 -55.5v121q34 2 57 21.5t23 48.5t-22.5 47t-57.5 20v98q-184 10 -330 100t-227.5 238.5t-81.5 327.5z" />
<glyph unicode="&#xc8;" horiz-adv-x="1204" d="M123 0v1286h1046v-301h-731v-180h596v-295h-596v-209h731v-301h-1046zM408 1444v217l432 -115v-215z" />
<glyph unicode="&#xc9;" horiz-adv-x="1204" d="M123 0v1286h1046v-301h-731v-180h596v-295h-596v-209h731v-301h-1046zM426 1331v215l432 115v-217z" />
<glyph unicode="&#xca;" horiz-adv-x="1204" d="M123 0v1286h1046v-301h-731v-180h596v-295h-596v-209h731v-301h-1046zM385 1329v199l260 92l260 -92v-199l-260 96z" />
<glyph unicode="&#xcb;" horiz-adv-x="1204" d="M123 0v1286h1046v-301h-731v-180h596v-295h-596v-209h731v-301h-1046zM256 1462q0 57 39 96t96 39q56 0 95.5 -39t39.5 -96q0 -54 -40 -93.5t-95 -39.5q-57 0 -96 39.5t-39 93.5zM731 1462q0 57 39 96t96 39q54 0 93.5 -39.5t39.5 -95.5q0 -54 -39.5 -93.5t-93.5 -39.5 q-56 0 -95.5 39.5t-39.5 93.5z" />
<glyph unicode="&#xcc;" horiz-adv-x="561" d="M20 1444v217l433 -115v-215zM123 0v1286h315v-1286h-315z" />
<glyph unicode="&#xcd;" horiz-adv-x="561" d="M119 1331v215l432 115v-217zM123 0v1286h315v-1286h-315z" />
<glyph unicode="&#xce;" horiz-adv-x="561" d="M18 1329v199l261 92l260 -92v-199l-260 96zM123 0v1286h315v-1286h-315z" />
<glyph unicode="&#xcf;" horiz-adv-x="561" d="M-57 1460q0 57 39 96t96 39q56 0 95.5 -39t39.5 -96q0 -54 -40 -93.5t-95 -39.5q-56 0 -95.5 39.5t-39.5 93.5zM123 0v1286h315v-1286h-315zM338 1460q0 57 39 96t96 39q55 0 94 -39.5t39 -95.5q0 -54 -39.5 -93.5t-93.5 -39.5q-57 0 -96 39.5t-39 93.5z" />
<glyph unicode="&#xd0;" horiz-adv-x="1441" d="M23 496v280h100v510h588q155 0 285.5 -52.5t217 -141.5t135 -205t48.5 -244q0 -127 -49.5 -243.5t-137 -205.5t-217.5 -141.5t-282 -52.5h-588v496h-100zM436 303h275q168 0 269 98t101 242t-101 242t-269 98h-275v-207h369v-280h-369v-193z" />
<glyph unicode="&#xd1;" horiz-adv-x="1327" d="M123 0v1362l768 -717v641h313v-1354l-768 717v-649h-313zM420 1315v176q58 70 149 70q37 0 93 -35t83 -35q70 0 115 72v-189q-71 -71 -139 -71q-44 0 -98.5 35.5t-92.5 35.5q-58 0 -110 -59z" />
<glyph unicode="&#xd2;" horiz-adv-x="1454" d="M41 643q0 139 54 263t146 212.5t218.5 140.5t267.5 52t267.5 -52t218.5 -140.5t146 -212.5t54 -263t-54 -263t-146 -212.5t-218.5 -140.5t-267.5 -52t-267.5 52t-218.5 140.5t-146 212.5t-54 263zM367 643q0 -150 108.5 -257t251.5 -107q142 0 251 107t109 257 t-109 257.5t-251 107.5q-143 0 -251.5 -107.5t-108.5 -257.5zM461 1444v217l432 -115v-215z" />
<glyph unicode="&#xd3;" horiz-adv-x="1454" d="M41 643q0 139 54 263t146 212.5t218.5 140.5t267.5 52t267.5 -52t218.5 -140.5t146 -212.5t54 -263t-54 -263t-146 -212.5t-218.5 -140.5t-267.5 -52t-267.5 52t-218.5 140.5t-146 212.5t-54 263zM367 643q0 -150 108.5 -257t251.5 -107q142 0 251 107t109 257 t-109 257.5t-251 107.5q-143 0 -251.5 -107.5t-108.5 -257.5zM508 1331v215l432 115v-217z" />
<glyph unicode="&#xd4;" horiz-adv-x="1454" d="M41 643q0 139 54 263t146 212.5t218.5 140.5t267.5 52t267.5 -52t218.5 -140.5t146 -212.5t54 -263t-54 -263t-146 -212.5t-218.5 -140.5t-267.5 -52t-267.5 52t-218.5 140.5t-146 212.5t-54 263zM367 643q0 -150 108.5 -257t251.5 -107q142 0 251 107t109 257 t-109 257.5t-251 107.5q-143 0 -251.5 -107.5t-108.5 -257.5zM457 1335v199l260 92l260 -92v-199l-260 97z" />
<glyph unicode="&#xd5;" horiz-adv-x="1454" d="M41 643q0 139 54 263t146 212.5t218.5 140.5t267.5 52t267.5 -52t218.5 -140.5t146 -212.5t54 -263t-54 -263t-146 -212.5t-218.5 -140.5t-267.5 -52t-267.5 52t-218.5 140.5t-146 212.5t-54 263zM367 643q0 -150 108.5 -257t251.5 -107q142 0 251 107t109 257 t-109 257.5t-251 107.5q-143 0 -251.5 -107.5t-108.5 -257.5zM502 1364v176q58 70 149 70q37 0 93 -35t83 -35q70 0 115 72v-189q-71 -71 -139 -71q-44 0 -98.5 35.5t-92.5 35.5q-58 0 -110 -59z" />
<glyph unicode="&#xd6;" horiz-adv-x="1454" d="M41 643q0 139 54 263t146 212.5t218.5 140.5t267.5 52t267.5 -52t218.5 -140.5t146 -212.5t54 -263t-54 -263t-146 -212.5t-218.5 -140.5t-267.5 -52t-267.5 52t-218.5 140.5t-146 212.5t-54 263zM342 1460q0 57 39 96t96 39q56 0 95.5 -39t39.5 -96q0 -54 -40 -93.5 t-95 -39.5q-57 0 -96 39.5t-39 93.5zM367 643q0 -150 108.5 -257t251.5 -107q142 0 251 107t109 257t-109 257.5t-251 107.5q-143 0 -251.5 -107.5t-108.5 -257.5zM817 1460q0 57 39 96t96 39q54 0 93.5 -39.5t39.5 -95.5q0 -54 -39.5 -93.5t-93.5 -39.5q-56 0 -95.5 39.5 t-39.5 93.5z" />
<glyph unicode="&#xd7;" d="M104 219l308 307l-308 308l205 204l307 -307l308 307l204 -204l-309 -308l309 -307l-204 -205l-308 308l-307 -308z" />
<glyph unicode="&#xd8;" horiz-adv-x="1454" d="M41 123l127 127q-127 175 -127 393q0 139 54 263t146 212.5t218.5 140.5t267.5 52q201 0 387 -113l131 133l168 -168l-127 -127q127 -172 127 -393q0 -139 -54 -263t-146 -212.5t-218.5 -140.5t-267.5 -52q-210 0 -387 113l-133 -133zM367 643q0 -89 34 -158l482 484 q-73 39 -156 39q-143 0 -251.5 -107.5t-108.5 -257.5zM571 317q68 -38 156 -38q142 0 251 107t109 257q0 75 -34 158z" />
<glyph unicode="&#xd9;" horiz-adv-x="1378" d="M113 532v754h313v-706q0 -144 74 -222.5t188 -78.5q115 0 188.5 78.5t73.5 222.5v706h316v-754q0 -111 -42.5 -213t-117 -178t-183.5 -121t-235 -45q-167 0 -300 77t-204 203.5t-71 276.5zM473 1423v217l432 -114v-215z" />
<glyph unicode="&#xda;" horiz-adv-x="1378" d="M113 532v754h313v-706q0 -144 74 -222.5t188 -78.5q115 0 188.5 78.5t73.5 222.5v706h316v-754q0 -111 -42.5 -213t-117 -178t-183.5 -121t-235 -45q-167 0 -300 77t-204 203.5t-71 276.5zM483 1311v215l432 114v-217z" />
<glyph unicode="&#xdb;" horiz-adv-x="1378" d="M113 532v754h313v-706q0 -144 74 -222.5t188 -78.5q115 0 188.5 78.5t73.5 222.5v706h316v-754q0 -111 -42.5 -213t-117 -178t-183.5 -121t-235 -45q-167 0 -300 77t-204 203.5t-71 276.5zM428 1329v199l260 92l260 -92v-199l-260 96z" />
<glyph unicode="&#xdc;" horiz-adv-x="1378" d="M113 532v754h313v-706q0 -144 74 -222.5t188 -78.5q115 0 188.5 78.5t73.5 222.5v706h316v-754q0 -111 -42.5 -213t-117 -178t-183.5 -121t-235 -45q-167 0 -300 77t-204 203.5t-71 276.5zM313 1462q0 57 39.5 96t96.5 39q56 0 95.5 -39t39.5 -96q0 -54 -40 -93.5 t-95 -39.5q-57 0 -96.5 39.5t-39.5 93.5zM788 1462q0 57 39.5 96t96.5 39q54 0 93.5 -39.5t39.5 -95.5q0 -54 -39.5 -93.5t-93.5 -39.5q-57 0 -96.5 39.5t-39.5 93.5z" />
<glyph unicode="&#xdd;" horiz-adv-x="1368" d="M0 1286h377l311 -524l309 524h373l-526 -823v-463h-316v463zM520 1311v215l432 114v-217z" />
<glyph unicode="&#xde;" horiz-adv-x="1286" d="M29 227v303h121v756h315v-147h299q213 0 345 -130.5t132 -326.5t-132 -325.5t-345 -129.5h-299v-227h-315v227h-121zM465 530h283q178 0 178 152t-178 152h-283v-304z" />
<glyph unicode="&#xf7;" d="M70 442v293h1052v-293h-1052zM397 197q0 82 58 140t141 58t141 -58t58 -140q0 -83 -58 -141t-141 -58t-141 58t-58 141zM397 981q0 83 58 141t141 58t141 -58t58 -141t-58 -141t-141 -58t-141 58t-58 141z" />
<glyph unicode="&#x152;" horiz-adv-x="2119" d="M41 643q0 139 54 263t146 212.5t218.5 140.5t267.5 52q205 0 344 -103v78h1000v-303h-703v-201h494v-303h-494v-176h703v-303h-1000v90q-147 -115 -344 -115q-141 0 -267.5 52t-218.5 140.5t-146 212.5t-54 263zM367 643q0 -150 108.5 -257t251.5 -107q105 0 190 54.5 t130 145.5h-117v301h127q-39 102 -128.5 165t-201.5 63q-143 0 -251.5 -107.5t-108.5 -257.5z" />
<glyph unicode="&#x178;" horiz-adv-x="1368" d="M0 1286h377l311 -524l309 524h373l-526 -823v-463h-316v463zM313 1462q0 57 39.5 96t96.5 39q56 0 95.5 -39t39.5 -96q0 -54 -40 -93.5t-95 -39.5q-57 0 -96.5 39.5t-39.5 93.5zM788 1462q0 57 39.5 96t96.5 39q54 0 93.5 -39.5t39.5 -95.5q0 -54 -39.5 -93.5 t-93.5 -39.5q-57 0 -96.5 39.5t-39.5 93.5z" />
<glyph unicode="&#x2c6;" horiz-adv-x="1024" d="M252 1038v199l260 92l260 -92v-199l-260 97z" />
<glyph unicode="&#x2dc;" horiz-adv-x="1024" d="M322 1073v176q58 70 149 70q37 0 93 -35t83 -35q70 0 115 72v-188q-72 -72 -139 -72q-44 0 -98.5 36t-92.5 36q-57 0 -110 -60z" />
<glyph unicode="&#x2000;" horiz-adv-x="859" />
<glyph unicode="&#x2001;" horiz-adv-x="1718" />
<glyph unicode="&#x2002;" horiz-adv-x="859" />
<glyph unicode="&#x2003;" horiz-adv-x="1718" />
<glyph unicode="&#x2004;" horiz-adv-x="572" />
<glyph unicode="&#x2005;" horiz-adv-x="429" />
<glyph unicode="&#x2006;" horiz-adv-x="286" />
<glyph unicode="&#x2007;" horiz-adv-x="286" />
<glyph unicode="&#x2008;" horiz-adv-x="214" />
<glyph unicode="&#x2009;" horiz-adv-x="343" />
<glyph unicode="&#x200a;" horiz-adv-x="95" />
<glyph unicode="&#x2010;" horiz-adv-x="608" d="M70 516v281h475v-281h-475z" />
<glyph unicode="&#x2011;" horiz-adv-x="608" d="M70 516v281h475v-281h-475z" />
<glyph unicode="&#x2012;" horiz-adv-x="608" d="M70 516v281h475v-281h-475z" />
<glyph unicode="&#x2013;" horiz-adv-x="1024" d="M41 526v258h942v-258h-942z" />
<glyph unicode="&#x2014;" horiz-adv-x="2048" d="M41 526v258h1966v-258h-1966z" />
<glyph unicode="&#x2018;" horiz-adv-x="468" d="M84 838v290l291 197v-487h-291z" />
<glyph unicode="&#x2019;" horiz-adv-x="468" d="M96 799v487h291v-291z" />
<glyph unicode="&#x201a;" horiz-adv-x="468" d="M86 -197v488h291v-291z" />
<glyph unicode="&#x201c;" horiz-adv-x="790" d="M68 838v290l292 197v-487h-292zM432 838v290l293 197v-487h-293z" />
<glyph unicode="&#x201d;" horiz-adv-x="790" d="M70 799v487h292v-291zM434 799v487h293v-291z" />
<glyph unicode="&#x201e;" horiz-adv-x="790" d="M68 -197v488h292v-291zM432 -197v488h293v-291z" />
<glyph unicode="&#x2022;" horiz-adv-x="1003" d="M156 643q0 143 101 243.5t245 100.5q142 0 243 -100.5t101 -243.5q0 -144 -100.5 -245t-243.5 -101q-145 0 -245.5 100.5t-100.5 245.5z" />
<glyph unicode="&#x2026;" horiz-adv-x="1943" d="M201 139q0 68 47.5 115t116.5 47q67 0 114 -47t47 -115q0 -69 -46.5 -116.5t-114.5 -47.5q-69 0 -116.5 47.5t-47.5 116.5zM831 139q0 67 48 114.5t116 47.5q69 0 116.5 -47t47.5 -115q0 -69 -47.5 -116.5t-116.5 -47.5q-68 0 -116 47.5t-48 116.5zM1464 139 q0 67 47 114.5t115 47.5q69 0 116.5 -47t47.5 -115q0 -69 -47.5 -116.5t-116.5 -47.5q-68 0 -115 47.5t-47 116.5z" />
<glyph unicode="&#x202f;" horiz-adv-x="343" />
<glyph unicode="&#x2039;" horiz-adv-x="677" d="M43 567l315 480l265 -91l-254 -389l252 -387l-263 -92z" />
<glyph unicode="&#x203a;" horiz-adv-x="677" d="M63 178l254 389l-254 387l263 93l317 -480l-317 -479z" />
<glyph unicode="&#x205f;" horiz-adv-x="429" />
<glyph unicode="&#x2122;" horiz-adv-x="1943" d="M18 1038v248h736v-248h-230v-632h-276v632h-230zM815 406v878h330l190 -500h21l194 500h328v-878h-233v565h-3l-206 -565h-176l-211 565h-2v-565h-232z" />
<glyph unicode="&#x25fc;" horiz-adv-x="1024" d="M0 0z" />
</font>
</defs>
</svg>
